<svg width="20" height="30" viewBox="0 0 20 30" fill="none" xmlns="http://www.w3.org/2000/svg">
<path d="M17.5 11.7188V8.4375C17.5 6.44838 16.7098 4.54072 15.3033 3.1342C13.8968 1.72768 11.9891 0.9375 10 0.9375C8.01088 0.9375 6.10322 1.72768 4.6967 3.1342C3.29018 4.54072 2.5 6.44838 2.5 8.4375V11.7188H0.15625V19.2188C0.15625 24.6466 4.57211 29.0625 10 29.0625C15.4279 29.0625 19.8438 24.6466 19.8438 19.2188V11.7188H17.5ZM4.375 8.4375C4.375 6.94566 4.96763 5.51492 6.02252 4.46002C7.07742 3.40513 8.50816 2.8125 10 2.8125C11.4918 2.8125 12.9226 3.40513 13.9775 4.46002C15.0324 5.51492 15.625 6.94566 15.625 8.4375V11.7188H4.375V8.4375ZM17.9688 19.2188C17.9688 23.6127 14.3939 27.1875 10 27.1875C5.60605 27.1875 2.03125 23.6127 2.03125 19.2188V13.5938H17.9688V19.2188Z" fill="#E41613"/>
</svg>
