<svg width="20" height="22" viewBox="0 0 20 22" fill="none" xmlns="http://www.w3.org/2000/svg">
<path d="M10 0.6875C6.38687 0.6875 3.4375 3.63687 3.4375 7.25C3.4375 9.50938 4.59062 11.5175 6.33812 12.6997C2.99406 14.1341 0.625 17.45 0.625 21.3125H2.5C2.5 17.1594 5.84688 13.8125 10 13.8125C14.1531 13.8125 17.5 17.1594 17.5 21.3125H19.375C19.375 17.45 17.0059 14.1331 13.6619 12.6988C14.554 12.0969 15.2849 11.2855 15.7906 10.3355C16.2963 9.3856 16.5613 8.32615 16.5625 7.25C16.5625 3.63687 13.6131 0.6875 10 0.6875ZM10 2.5625C12.5997 2.5625 14.6875 4.65031 14.6875 7.25C14.6875 9.84969 12.5997 11.9375 10 11.9375C7.40031 11.9375 5.3125 9.84969 5.3125 7.25C5.3125 4.65031 7.40031 2.5625 10 2.5625Z" fill="#E41613"/>
</svg>
